<svg xmlns="http://www.w3.org/2000/svg" viewBox="0 0 64 64" fill="none">
  <defs>
    <linearGradient id="g" x1="8" y1="8" x2="56" y2="56" gradientUnits="userSpaceOnUse">
      <stop stop-color="#9DD9FF"/>
      <stop offset="1" stop-color="#5CA9DE"/>
    </linearGradient>
  </defs>
  <rect x="6" y="6" width="52" height="52" rx="14" fill="#0D1A2A" stroke="#2E4B66"/>
  <path d="M21 34c0-6.2 5-11.2 11.2-11.2h.6C39 22.8 44 27.8 44 34c0 4.8-3 8.9-7.3 10.5-.8.3-1.7-.3-1.7-1.2v-2.8c2-.9 3.4-2.9 3.4-5.2 0-3.2-2.6-5.8-5.8-5.8h-.6c-3.2 0-5.8 2.6-5.8 5.8 0 2.3 1.4 4.3 3.4 5.2v2.8c0 .9-.9 1.5-1.7 1.2C24 42.9 21 38.8 21 34Z" fill="url(#g)"/>
  <circle cx="27.8" cy="33.8" r="1.4" fill="#CBEAFF"/>
  <circle cx="36.2" cy="33.8" r="1.4" fill="#CBEAFF"/>
  <path d="M29 39.5c.8.7 1.9 1.1 3 1.1s2.2-.4 3-1.1" stroke="#CBEAFF" stroke-width="1.6" stroke-linecap="round"/>
</svg>
